<?xml version="1.0" encoding="UTF-8"?>
<svg xmlns="http://www.w3.org/2000/svg" version="1.1" viewBox="0 0 200 200">
  <defs>
    <style>
      .cls-1 {
        fill: red;
      }
    </style>
  </defs>
  <!-- Generator: Adobe Illustrator 28.7.1, SVG Export Plug-In . SVG Version: 1.2.0 Build 142)  -->
  <g>
    <g id="_图层_1" data-name="图层_1">
      <g>
        <path class="cls-1" d="M169.3,60.3L99.9,20.5,30.6,60.2v79.5c0,0,69.5,39.8,69.5,39.8l69.3-39.6V60.3ZM157.4,133.4l-57.3,33.3-57.4-33.4v-66.7c0,0,57.3-33.3,57.3-33.3l57.4,33.4v66.7Z"/>
        <path class="cls-1" d="M60.1,84.5l35,20.1v40.1c0,2.9,2.3,5.2,5.2,5.2s5.2-2.3,5.2-5.2v-40.2l34.9-20.1c2.5-1.4,3.3-4.6,1.9-7.1,0,0,0,0,0,0-1.4-2.5-4.6-3.3-7.1-1.9l-35,20.1-35-20.1c-2.5-1.4-5.6-.6-7,1.9-1.4,2.5-.6,5.6,1.9,7.1,0,0,0,0,0,0h0Z"/>
      </g>
    </g>
  </g>
</svg>